<svg version="1.1" id="Layer_1" xmlns="http://www.w3.org/2000/svg" xmlns:xlink="http://www.w3.org/1999/xlink" x="0px" y="0px"
	 width="100%" viewBox="0 0 232 258" enable-background="new 0 0 232 258" xml:space="preserve">
<path fill="#FFFFFF" opacity="1.000000" stroke="none" 
	d="
M119.000000,1.000001 
	C156.906387,1.000000 194.812759,1.000000 233.000000,1.000000 
	C233.000000,22.020061 233.000000,43.041370 232.652496,64.438263 
	C220.369064,58.167023 208.434525,51.517693 196.496887,44.873932 
	C174.425797,32.590496 152.337570,20.337652 130.295151,8.002992 
	C126.433167,5.841880 122.760239,3.342927 119.000000,1.000001 
z"/>
<path fill="#FFFFFF" opacity="1.000000" stroke="none" 
	d="
M233.000000,195.000000 
	C233.000000,216.280777 233.000000,237.561539 233.000000,259.000000 
	C195.312576,259.000000 157.624954,259.000000 119.561096,258.654358 
	C130.858551,251.865005 142.552673,245.457977 154.201736,238.970078 
	C180.479660,224.334625 206.735291,209.659164 233.000000,195.000000 
z"/>
<path fill="#FFFFFF" opacity="1.000000" stroke="none" 
	d="
M115.000000,259.000000 
	C77.093620,259.000000 39.187241,259.000000 1.000000,259.000000 
	C1.000000,237.979935 1.000000,216.958633 1.344679,195.558640 
	C7.707864,198.561035 13.721639,201.950562 19.745739,205.321625 
	C39.813099,216.551239 59.903740,227.739426 79.946342,239.013031 
	C91.669350,245.607010 103.317940,252.333252 115.000000,259.000000 
z"/>
<path fill="#FFFFFF" opacity="1.000000" stroke="none" 
	d="
M1.000000,65.000000 
	C1.000000,43.719223 1.000000,22.438446 1.000000,1.000000 
	C38.687424,1.000000 76.375053,1.000000 114.425049,1.345506 
	C109.943726,4.231407 105.041519,6.666860 100.266304,9.330017 
	C77.233292,22.175606 54.229923,35.074398 31.225636,47.971443 
	C21.138632,53.626591 11.074511,59.322563 1.000000,65.000000 
z"/>
<path fill="#322928" opacity="1.000000" stroke="none" 
	d="
M1.000000,65.468658 
	C11.074511,59.322563 21.138632,53.626591 31.225636,47.971443 
	C54.229923,35.074398 77.233292,22.175606 100.266304,9.330017 
	C105.041519,6.666860 109.943726,4.231407 114.893707,1.345506 
	C116.066673,1.000000 117.133339,1.000000 118.600006,1.000001 
	C122.760239,3.342927 126.433167,5.841880 130.295151,8.002992 
	C152.337570,20.337652 174.425797,32.590496 196.496887,44.873932 
	C208.434525,51.517693 220.369064,58.167023 232.652496,64.906921 
	C233.000000,108.020897 233.000000,151.041794 233.000000,194.531342 
	C206.735291,209.659164 180.479660,224.334625 154.201736,238.970078 
	C142.552673,245.457977 130.858551,251.865005 119.092438,258.654358 
	C117.933327,259.000000 116.866661,259.000000 115.399994,259.000000 
	C103.317940,252.333252 91.669350,245.607010 79.946342,239.013031 
	C59.903740,227.739426 39.813099,216.551239 19.745739,205.321625 
	C13.721639,201.950562 7.707864,198.561035 1.344679,195.089981 
	C1.000000,151.979111 1.000000,108.958214 1.000000,65.468658 
M2.916360,189.192902 
	C2.334440,192.692139 3.889489,194.639603 7.082159,196.118713 
	C11.751181,198.281754 16.189547,200.949432 20.693882,203.460068 
	C51.777657,220.785522 82.833488,238.161484 113.993217,255.349121 
	C115.435143,256.144470 118.144936,255.951172 119.657135,255.117340 
	C155.772598,235.203110 191.782181,215.096817 227.897598,195.182495 
	C230.639938,193.670334 231.028229,191.864319 231.024643,189.189041 
	C230.971771,149.706970 230.954498,110.224754 231.054306,70.742882 
	C231.062012,67.692902 230.152176,66.028343 227.432373,64.520462 
	C193.691360,45.814095 159.883209,27.219065 126.455933,7.964190 
	C119.137230,3.748448 113.390305,2.965197 106.914604,8.405797 
	C105.421631,9.660128 103.385139,10.252533 101.640701,11.224787 
	C70.120239,28.792566 38.635719,46.425343 7.043899,63.863758 
	C3.979068,65.555519 2.833111,67.334496 2.843354,70.810936 
	C2.958704,109.959541 2.916215,149.108612 2.916360,189.192902 
z"/>
<path fill="#8C241F" opacity="1.000000" stroke="none" 
	d="
M2.916234,188.725220 
	C2.916215,149.108612 2.958704,109.959541 2.843354,70.810936 
	C2.833111,67.334496 3.979068,65.555519 7.043899,63.863758 
	C38.635719,46.425343 70.120239,28.792566 101.640701,11.224787 
	C103.385139,10.252533 105.421631,9.660128 106.914604,8.405797 
	C113.390305,2.965197 119.137230,3.748448 126.455933,7.964190 
	C159.883209,27.219065 193.691360,45.814095 227.432373,64.520462 
	C230.152176,66.028343 231.062012,67.692902 231.054306,70.742882 
	C230.954498,110.224754 230.971771,149.706970 231.024643,189.189041 
	C231.028229,191.864319 230.639938,193.670334 227.897598,195.182495 
	C191.782181,215.096817 155.772598,235.203110 119.657135,255.117340 
	C118.144936,255.951172 115.435143,256.144470 113.993217,255.349121 
	C82.833488,238.161484 51.777657,220.785522 20.693882,203.460068 
	C16.189547,200.949432 11.751181,198.281754 7.082159,196.118713 
	C3.889489,194.639603 2.334440,192.692139 2.916234,188.725220 
M184.005722,192.087708 
	C184.005722,159.851242 184.005722,127.614777 184.005722,94.784027 
	C176.627579,94.784027 170.056366,94.784027 163.048691,94.784027 
	C163.048691,83.054672 163.137161,71.920502 163.026321,60.788311 
	C162.887405,46.836582 151.083771,35.104763 137.109009,35.019699 
	C122.948212,34.933502 108.786179,34.942028 94.625267,35.017914 
	C82.596214,35.082375 70.928238,43.627125 69.194061,55.565407 
	C67.629005,66.339424 68.303192,77.439796 68.011780,88.396820 
	C67.956505,90.474861 68.003860,92.555634 68.003860,95.239761 
	C59.239796,95.239761 51.340847,95.239761 43.442184,95.239761 
	C43.264271,96.486816 43.091488,97.133904 43.091179,97.781075 
	C43.076538,128.436127 42.903469,159.092621 43.154873,189.745605 
	C43.266254,203.326263 53.690205,212.977951 67.348625,212.990906 
	C97.670486,213.019653 127.998322,212.654251 158.311279,213.174301 
	C170.072662,213.376099 182.501266,205.660507 184.005722,192.087708 
z"/>
<path fill="#2C2A29" opacity="1.000000" stroke="none" 
	d="
M183.989014,192.536514 
	C182.501266,205.660507 170.072662,213.376099 158.311279,213.174301 
	C127.998322,212.654251 97.670486,213.019653 67.348625,212.990906 
	C53.690205,212.977951 43.266254,203.326263 43.154873,189.745605 
	C42.903469,159.092621 43.076538,128.436127 43.091179,97.781075 
	C43.091488,97.133904 43.264271,96.486816 43.442184,95.239761 
	C51.340847,95.239761 59.239796,95.239761 68.003860,95.239761 
	C68.003860,92.555634 67.956505,90.474861 68.011780,88.396820 
	C68.303192,77.439796 67.629005,66.339424 69.194061,55.565407 
	C70.928238,43.627125 82.596214,35.082375 94.625267,35.017914 
	C108.786179,34.942028 122.948212,34.933502 137.109009,35.019699 
	C151.083771,35.104763 162.887405,46.836582 163.026321,60.788311 
	C163.137161,71.920502 163.048691,83.054672 163.048691,94.784027 
	C170.056366,94.784027 176.627579,94.784027 184.005722,94.784027 
	C184.005722,127.614777 184.005722,159.851242 183.989014,192.536514 
M133.314056,50.998898 
	C121.152092,50.998981 108.990082,50.978935 96.828178,51.006054 
	C88.375900,51.024906 84.036362,55.435566 84.010757,64.007858 
	C83.984894,72.671104 83.988716,81.334557 84.019875,89.997765 
	C84.025566,91.578880 84.224892,93.159309 84.322876,94.568176 
	C105.522057,94.568176 126.090256,94.568176 147.059937,94.568176 
	C147.059937,84.016312 147.073578,73.875946 147.055832,63.735634 
	C147.040359,54.898991 143.191406,51.086826 133.314056,50.998898 
M124.712669,179.378204 
	C119.846176,181.051605 122.902374,184.881119 121.957527,188.389862 
	C132.116440,184.332321 141.689056,180.620422 151.156647,176.657654 
	C153.891647,175.512878 153.814865,169.729187 151.065918,168.583252 
	C141.593094,164.634384 132.028244,160.906189 122.626015,157.144974 
	C120.471313,163.218307 122.932693,165.891983 128.500854,167.275497 
	C133.261063,168.458267 137.787292,170.582840 143.338028,172.630615 
	C136.688644,175.034683 131.072998,177.065002 124.712669,179.378204 
M90.472610,167.909470 
	C99.082306,164.704819 99.082306,164.704819 98.471176,157.009354 
	C88.831390,160.849014 79.285599,164.560226 69.825356,168.477997 
	C67.181862,169.572739 67.045952,175.517639 69.661461,176.612854 
	C79.098572,180.564560 88.640472,184.266006 98.164551,188.070648 
	C99.958679,182.519501 98.513435,179.447525 92.903618,178.022247 
	C87.939430,176.760956 83.212845,174.564514 77.581062,172.485489 
	C82.243813,170.796890 85.977409,169.444763 90.472610,167.909470 
M118.920235,152.330841 
	C115.035957,149.840317 112.999557,150.343658 111.972000,154.167419 
	C110.251381,160.570160 108.610870,166.994522 106.950226,173.413300 
	C105.231483,180.056625 103.528908,186.704147 101.745689,193.635849 
	C104.240242,193.635849 106.008324,193.635849 107.994728,193.635849 
	C111.603333,180.058365 115.177589,166.610123 118.920235,152.330841 
z"/>
<path fill="#8C241F" opacity="1.000000" stroke="none" 
	d="
M133.783493,50.999001 
	C143.191406,51.086826 147.040359,54.898991 147.055832,63.735634 
	C147.073578,73.875946 147.059937,84.016312 147.059937,94.568176 
	C126.090256,94.568176 105.522057,94.568176 84.322876,94.568176 
	C84.224892,93.159309 84.025566,91.578880 84.019875,89.997765 
	C83.988716,81.334557 83.984894,72.671104 84.010757,64.007858 
	C84.036362,55.435566 88.375900,51.024906 96.828178,51.006054 
	C108.990082,50.978935 121.152092,50.998981 133.783493,50.999001 
z"/>
<path fill="#F5F5F5" opacity="1.000000" stroke="none" 
	d="
M125.085007,179.236755 
	C131.072998,177.065002 136.688644,175.034683 143.338028,172.630615 
	C137.787292,170.582840 133.261063,168.458267 128.500854,167.275497 
	C122.932693,165.891983 120.471313,163.218307 122.626015,157.144974 
	C132.028244,160.906189 141.593094,164.634384 151.065918,168.583252 
	C153.814865,169.729187 153.891647,175.512878 151.156647,176.657654 
	C141.689056,180.620422 132.116440,184.332321 121.957527,188.389862 
	C122.902374,184.881119 119.846176,181.051605 125.085007,179.236755 
z"/>
<path fill="#F4F4F4" opacity="1.000000" stroke="none" 
	d="
M90.091812,168.001068 
	C85.977409,169.444763 82.243813,170.796890 77.581062,172.485489 
	C83.212845,174.564514 87.939430,176.760956 92.903618,178.022247 
	C98.513435,179.447525 99.958679,182.519501 98.164551,188.070648 
	C88.640472,184.266006 79.098572,180.564560 69.661461,176.612854 
	C67.045952,175.517639 67.181862,169.572739 69.825356,168.477997 
	C79.285599,164.560226 88.831390,160.849014 98.471176,157.009354 
	C99.082306,164.704819 99.082306,164.704819 90.091812,168.001068 
z"/>
<path fill="#F5F4F4" opacity="1.000000" stroke="none" 
	d="
M118.836044,152.746353 
	C115.177589,166.610123 111.603333,180.058365 107.994728,193.635849 
	C106.008324,193.635849 104.240242,193.635849 101.745689,193.635849 
	C103.528908,186.704147 105.231483,180.056625 106.950226,173.413300 
	C108.610870,166.994522 110.251381,160.570160 111.972000,154.167419 
	C112.999557,150.343658 115.035957,149.840317 118.836044,152.746353 
z"/>
</svg>